<mxfile host="app.diagrams.net" modified="2021-06-24T09:47:21.249Z" agent="5.0 (Windows NT 10.0; Win64; x64) AppleWebKit/537.36 (KHTML, like Gecko) Chrome/91.0.4472.77 Safari/537.36" etag="EaguUPRqBczk_Jnql9cD" version="14.8.0" type="github">
  <diagram id="_KMGsbkQ58fOH1p905Vx" name="Page-1">
    <mxGraphModel dx="1038" dy="547" grid="1" gridSize="10" guides="1" tooltips="1" connect="1" arrows="1" fold="1" page="1" pageScale="1" pageWidth="1169" pageHeight="827" math="0" shadow="0">
      <root>
        <mxCell id="0" />
        <mxCell id="1" parent="0" />
        <mxCell id="06uPZIadHfzxcY-ELfSv-1" value="" style="rounded=0;whiteSpace=wrap;html=1;fillColor=#1C9DFF;sketch=1;" vertex="1" parent="1">
          <mxGeometry x="585" y="260" width="190" height="40" as="geometry" />
        </mxCell>
        <mxCell id="06uPZIadHfzxcY-ELfSv-2" value="" style="rounded=0;whiteSpace=wrap;html=1;fillColor=#1C9DFF;sketch=1;" vertex="1" parent="1">
          <mxGeometry x="740" y="430" width="120" height="40" as="geometry" />
        </mxCell>
        <mxCell id="06uPZIadHfzxcY-ELfSv-3" value="" style="rounded=0;whiteSpace=wrap;html=1;fillColor=#1C9DFF;sketch=1;" vertex="1" parent="1">
          <mxGeometry x="420" y="100" width="260" height="40" as="geometry" />
        </mxCell>
        <mxCell id="06uPZIadHfzxcY-ELfSv-4" value="" style="rounded=0;whiteSpace=wrap;html=1;fontFamily=中国式手写风;fontSize=36;fontColor=#FF0000;sketch=1;fillColor=#FF0000;" vertex="1" parent="1">
          <mxGeometry x="420" y="100" width="30" height="40" as="geometry" />
        </mxCell>
        <mxCell id="06uPZIadHfzxcY-ELfSv-5" value="" style="rounded=0;whiteSpace=wrap;html=1;fontFamily=中国式手写风;fontSize=36;fontColor=#FF0000;sketch=1;fillColor=#FF0000;" vertex="1" parent="1">
          <mxGeometry x="740" y="430" width="30" height="40" as="geometry" />
        </mxCell>
        <mxCell id="06uPZIadHfzxcY-ELfSv-6" value="" style="rounded=0;whiteSpace=wrap;html=1;fontFamily=中国式手写风;fontSize=36;fontColor=#FF0000;sketch=1;fillColor=#FF0000;" vertex="1" parent="1">
          <mxGeometry x="585" y="260" width="30" height="40" as="geometry" />
        </mxCell>
        <mxCell id="06uPZIadHfzxcY-ELfSv-7" value="" style="endArrow=classic;html=1;fontFamily=中国式手写风;fontSize=36;fontColor=#FF0000;strokeColor=#FF0000;" edge="1" parent="1">
          <mxGeometry width="50" height="50" relative="1" as="geometry">
            <mxPoint x="680" y="330" as="sourcePoint" />
            <mxPoint x="740" y="400" as="targetPoint" />
          </mxGeometry>
        </mxCell>
        <mxCell id="06uPZIadHfzxcY-ELfSv-10" value="" style="endArrow=classic;html=1;fontFamily=中国式手写风;fontSize=36;fontColor=#FF0000;strokeColor=#FF0000;" edge="1" parent="1">
          <mxGeometry width="50" height="50" relative="1" as="geometry">
            <mxPoint x="570" y="170" as="sourcePoint" />
            <mxPoint x="620" y="230" as="targetPoint" />
          </mxGeometry>
        </mxCell>
        <mxCell id="06uPZIadHfzxcY-ELfSv-17" value="Quick Sort" style="text;html=1;strokeColor=none;fillColor=none;align=center;verticalAlign=middle;whiteSpace=wrap;rounded=0;fontFamily=中国式手写风;fontSize=36;fontColor=#FF0000;sketch=1;" vertex="1" parent="1">
          <mxGeometry x="450" y="30" width="200" height="40" as="geometry" />
        </mxCell>
      </root>
    </mxGraphModel>
  </diagram>
</mxfile>
